#N canvas 130 214 1010 566 12;
#X obj 180 209 jam 180 100, f 16;
#X obj 118 114 tgl 19 0 empty empty empty 0 -10 0 12 #fcfcfc #000000 #000000 0 1;
#X obj 311 309 print LINFO;
#X obj 118 142 metro 2.5;
#X msg 217 141 reset;
#X msg 211 110 load /Users/owen/repos/jampd/jams/cclfo.lua;
#X obj 165 267 route ctl;
#X obj 165 291 route 21 22 23;
#X obj 84 618 ctlout 20;
#X obj 177 619 ctlout 21;
#X obj 270 615 ctlout 22;
#X obj 167 346 vsl 19 162 0 127 0 0 empty empty empty 0 -9 0 12 #fcfcfc #000000 #000000 0 1;
#X obj 207 353 vsl 19 162 0 127 0 0 empty empty empty 0 -9 0 12 #fcfcfc #000000 #000000 0 1;
#X obj 257 354 vsl 19 162 0 127 0 0 empty empty empty 0 -9 0 12 #fcfcfc #000000 #000000 0 1;
#X obj 170 235 list trim;
#X connect 0 0 14 0;
#X connect 0 1 2 0;
#X connect 1 0 3 0;
#X connect 3 0 0 0;
#X connect 4 0 0 0;
#X connect 5 0 0 0;
#X connect 6 0 7 0;
#X connect 7 0 11 0;
#X connect 7 1 12 0;
#X connect 7 2 13 0;
#X connect 11 0 8 0;
#X connect 12 0 9 0;
#X connect 13 0 10 0;
#X connect 14 0 6 0;
