#N canvas 118 139 1015 799 12;
#X obj 187 275 jam 180 100, f 16;
#X obj 318 375 print LINFO;
#X msg 253 216 reset;
#X msg 243 175 load /Users/owen/repos/jampd/jams/cclfo.lua;
#X obj 172 333 route ctl;
#X obj 172 357 route 21 22 23;
#X obj 91 684 ctlout 20;
#X obj 184 685 ctlout 21;
#X obj 277 681 ctlout 22;
#X obj 174 412 vsl 19 128 0 127 0 0 empty empty empty 0 -9 0 12 #fcfcfc #000000 #000000 0 1;
#X obj 207 411 vsl 19 128 0 127 0 0 empty empty empty 0 -9 0 12 #fcfcfc #000000 #000000 0 1;
#X obj 241 414 vsl 19 128 0 127 0 0 empty empty empty 0 -9 0 12 #fcfcfc #000000 #000000 0 1;
#X obj 177 301 list trim;
#X obj 117 478 t b b;
#X obj 117 502 timer;
#X floatatom 117 526 5 0 0 0 - - - 0;
#N canvas 295 320 450 300 tempo 0;
#X obj 129 210 metro 2.5;
#X floatatom 184 84 5 0 0 0 - - - 0;
#X floatatom 184 131 5 0 0 0 - - - 0;
#X obj 184 107 expr 60000/$f1;
#X obj 184 154 / 180;
#X floatatom 184 178 5 0 0 0 - - - 0;
#X obj 215 22 inlet;
#X obj 97 32 inlet;
#X obj 128 247 outlet;
#X obj 212 56 t f f;
#X obj 296 241 outlet;
#X connect 0 0 8 0;
#X connect 1 0 3 0;
#X connect 2 0 4 0;
#X connect 3 0 2 0;
#X connect 4 0 5 0;
#X connect 5 0 0 1;
#X connect 6 0 9 0;
#X connect 7 0 0 0;
#X connect 9 0 1 0;
#X connect 9 1 10 0;
#X restore 77 164 pd tempo;
#X obj 74 109 tgl 19 0 empty empty empty 0 -10 0 12 #fcfcfc #000000 #000000 0 1;
#X obj 137 97 hsl 162 19 0 300 0 0 empty empty empty -2 -10 0 12 #fcfcfc #000000 #000000 0 1;
#X floatatom 131 130 5 0 0 0 - - - 0;
#X msg 149 201 bpm \$1;
#X connect 0 0 12 0;
#X connect 0 1 1 0;
#X connect 2 0 0 0;
#X connect 3 0 0 0;
#X connect 4 0 5 0;
#X connect 5 0 9 0;
#X connect 5 0 13 0;
#X connect 5 1 10 0;
#X connect 5 2 11 0;
#X connect 9 0 6 0;
#X connect 10 0 7 0;
#X connect 11 0 8 0;
#X connect 12 0 4 0;
#X connect 13 0 14 0;
#X connect 13 1 14 1;
#X connect 14 0 15 0;
#X connect 16 0 0 0;
#X connect 16 1 20 0;
#X connect 17 0 16 0;
#X connect 18 0 19 0;
#X connect 19 0 16 1;
#X connect 20 0 0 0;
