#N canvas 118 139 1015 799 12;
#X obj 187 275 jam 180 100, f 16;
#X obj 125 180 tgl 19 0 empty empty empty 0 -10 0 12 #fcfcfc #000000 #000000 0 1;
#X obj 318 375 print LINFO;
#X obj 125 208 metro 2.5;
#X msg 253 216 reset;
#X msg 243 175 load /Users/owen/repos/jampd/jams/cclfo.lua;
#X obj 172 333 route ctl;
#X obj 172 357 route 21 22 23;
#X obj 91 684 ctlout 20;
#X obj 184 685 ctlout 21;
#X obj 277 681 ctlout 22;
#X obj 174 412 vsl 19 128 0 127 0 0 empty empty empty 0 -9 0 12 #fcfcfc #000000 #000000 0 1;
#X obj 207 411 vsl 19 128 0 127 0 0 empty empty empty 0 -9 0 12 #fcfcfc #000000 #000000 0 1;
#X obj 241 414 vsl 19 128 0 127 0 0 empty empty empty 0 -9 0 12 #fcfcfc #000000 #000000 0 1;
#X obj 177 301 list trim;
#X obj 183 58 hsl 162 19 0 300 0 0 empty empty empty -2 -10 0 12 #fcfcfc #000000 #000000 0 1;
#X floatatom 180 82 5 0 0 0 - - - 0;
#X floatatom 180 129 5 0 0 0 - - - 0;
#X obj 180 105 expr 60000/$f1;
#X obj 180 152 / 180;
#X floatatom 180 176 5 0 0 0 - - - 0;
#X connect 0 0 14 0;
#X connect 0 1 2 0;
#X connect 1 0 3 0;
#X connect 3 0 0 0;
#X connect 4 0 0 0;
#X connect 5 0 0 0;
#X connect 6 0 7 0;
#X connect 7 0 11 0;
#X connect 7 1 12 0;
#X connect 7 2 13 0;
#X connect 11 0 8 0;
#X connect 12 0 9 0;
#X connect 13 0 10 0;
#X connect 14 0 6 0;
#X connect 15 0 16 0;
#X connect 16 0 18 0;
#X connect 17 0 19 0;
#X connect 18 0 17 0;
#X connect 19 0 20 0;
#X connect 20 0 3 1;
