#N canvas 568 144 976 785 12;
#X msg 371 334 reset;
#N canvas 295 320 450 300 tempo 0;
#X obj 129 210 metro 2.5;
#X floatatom 184 84 5 0 0 0 - - - 0;
#X floatatom 184 131 5 0 0 0 - - - 0;
#X obj 184 107 expr 60000/$f1;
#X floatatom 184 178 5 0 0 0 - - - 0;
#X obj 215 22 inlet;
#X obj 97 32 inlet;
#X obj 128 247 outlet;
#X obj 212 56 t f f;
#X obj 296 241 outlet;
#X obj 184 154 / 360;
#X connect 0 0 7 0;
#X connect 1 0 3 0;
#X connect 2 0 10 0;
#X connect 3 0 2 0;
#X connect 4 0 0 1;
#X connect 5 0 8 0;
#X connect 6 0 0 0;
#X connect 8 0 1 0;
#X connect 8 1 9 0;
#X connect 10 0 4 0;
#X restore 98 279 pd tempo;
#X obj 98 221 tgl 19 0 empty empty empty 0 -10 0 12 #fcfcfc #000000 #000000 0 1;
#X obj 154 224 hsl 162 19 10 300 0 0 empty empty empty -2 -10 0 12 #fcfcfc #000000 #000000 0 1;
#X floatatom 151 253 5 0 0 0 - - - 0;
#X msg 151 331 bpm \$1;
#X obj 616 248 openpanel;
#X obj 616 219 bng 19 250 50 0 empty empty empty 0 -10 0 12 #fcfcfc #000000 #000000;
#X msg 672 316 load \$1;
#X obj 371 194 bng 19 250 50 0 empty empty empty 0 -10 0 12 #fcfcfc #000000 #000000;
#X obj 371 224 t b b;
#X obj 616 273 t b a;
#X msg 616 318 reset;
#X obj 306 638 print;
#X obj 306 604 jam 360 100, f 16;
#X floatatom 415 632 8 0 0 0 - - - 0;
#X msg 706 380 note 60 1;
#X msg 706 406 note 60 0;
#X obj 422 260 file patchpath;
#X obj 422 287 makefilename %s/jam.lua;
#X msg 422 334 load \$1;
#X obj 124 71 loadbang;
#X msg 151 191 100;
#X obj 124 104 t b b b;
#X text 196 191 tempo;
#X text 407 194 load test jam;
#X text 654 217 load jam;
#X text 787 378 note on;
#X text 788 405 note off;
#X text 825 435 message in;
#X text 480 631 current tick (jam.tc);
#X msg 705 435 msg abcd 1 2 3;
#X connect 0 0 14 0;
#X connect 1 0 14 0;
#X connect 1 1 5 0;
#X connect 2 0 1 0;
#X connect 3 0 4 0;
#X connect 4 0 1 1;
#X connect 5 0 14 0;
#X connect 6 0 11 0;
#X connect 7 0 6 0;
#X connect 8 0 14 0;
#X connect 9 0 10 0;
#X connect 10 0 0 0;
#X connect 10 1 18 0;
#X connect 11 0 12 0;
#X connect 11 1 8 0;
#X connect 12 0 14 0;
#X connect 14 0 13 0;
#X connect 14 1 15 0;
#X connect 16 0 14 0;
#X connect 17 0 14 0;
#X connect 18 0 19 0;
#X connect 19 0 20 0;
#X connect 20 0 14 0;
#X connect 21 0 23 0;
#X connect 22 0 3 0;
#X connect 23 0 2 0;
#X connect 23 1 22 0;
#X connect 23 2 9 0;
#X connect 31 0 14 0;
