#N canvas 792 181 958 684 12;
#X obj 193 437 pack;
#X obj 193 461 s notes;
#X obj 186 301 list trim;
#X obj 311 309 print LINFO;
#X obj 189 368 unpack 0 0 0;
#X obj 191 407 makenote;
#X msg 409 120 reset;
#N canvas 295 320 450 300 tempo 0;
#X obj 129 210 metro 2.5;
#X floatatom 184 84 5 0 0 0 - - - 0;
#X floatatom 184 131 5 0 0 0 - - - 0;
#X obj 184 107 expr 60000/$f1;
#X floatatom 184 178 5 0 0 0 - - - 0;
#X obj 215 22 inlet;
#X obj 97 32 inlet;
#X obj 128 247 outlet;
#X obj 212 56 t f f;
#X obj 296 241 outlet;
#X obj 184 154 / 360;
#X connect 0 0 7 0;
#X connect 1 0 3 0;
#X connect 2 0 10 0;
#X connect 3 0 2 0;
#X connect 4 0 0 1;
#X connect 5 0 8 0;
#X connect 6 0 0 0;
#X connect 8 0 1 0;
#X connect 8 1 9 0;
#X connect 10 0 4 0;
#X restore 54 100 pd tempo;
#X obj 51 45 tgl 19 0 empty empty empty 0 -10 0 12 #fcfcfc #000000 #000000 0 1;
#X obj 132 35 hsl 162 19 10 300 0 0 empty empty empty -2 -10 0 12 #fcfcfc #000000 #000000 0 1;
#X floatatom 108 66 5 0 0 0 - - - 0;
#X msg 126 137 bpm \$1;
#X msg 459 118 load /Users/owen/repos/jampd/jam.lua;
#X obj 532 309 file patchpath;
#X obj 532 286 bng 19 250 50 0 empty empty empty 0 -10 0 12 #fcfcfc #000000 #000000;
#X obj 532 333 print;
#X obj 827 81 openpanel;
#X obj 828 56 bng 19 250 50 0 empty empty empty 0 -10 0 12 #fcfcfc #000000 #000000;
#X msg 827 132 load \$1;
#X obj 426 67 bng 19 250 50 0 empty empty empty 0 -10 0 12 #fcfcfc #000000 #000000;
#X obj 426 91 t b b;
#X obj 816 105 t b a;
#X msg 771 129 reset;
#X obj 189 336 route makenote ctl;
#X obj 310 380 route 21;
#X obj 313 442 vsl 19 162 0 127 0 0 empty empty empty 0 -9 0 12 #fcfcfc #000000 #000000 0 1;
#X obj 310 408 unpack;
#X obj 311 620 s cc1;
#X obj 99 348 print;
#X obj 723 232 list;
#X msg 203 68 note 51 1;
#X msg 240 124 ctl 33 3 51 1;
#X msg 225 95 list thing 33 3 51 1;
#X obj 37 142 bng 19 250 50 0 empty empty empty 0 -10 0 12 #fcfcfc #000000 #000000;
#X msg 46 171 362;
#X obj 368 24 hsl 162 19 0 127 0 0 empty empty empty -2 -10 0 12 #fcfcfc #000000 #000000 0 0;
#X msg 305 58 ctl 33 \$1;
#X obj 191 260 jam 360 100, f 16;
#X obj 459 384 s ctl;
#X connect 0 0 1 0;
#X connect 2 0 23 0;
#X connect 4 0 5 0;
#X connect 4 1 5 1;
#X connect 4 2 5 2;
#X connect 5 0 0 0;
#X connect 5 1 0 1;
#X connect 6 0 37 0;
#X connect 7 0 37 0;
#X connect 7 1 11 0;
#X connect 8 0 7 0;
#X connect 9 0 10 0;
#X connect 10 0 7 1;
#X connect 11 0 37 0;
#X connect 12 0 37 0;
#X connect 13 0 15 0;
#X connect 14 0 13 0;
#X connect 16 0 21 0;
#X connect 17 0 16 0;
#X connect 18 0 37 0;
#X connect 19 0 20 0;
#X connect 20 0 6 0;
#X connect 20 1 12 0;
#X connect 21 0 22 0;
#X connect 21 1 18 0;
#X connect 22 0 37 0;
#X connect 23 0 4 0;
#X connect 23 1 24 0;
#X connect 23 1 38 0;
#X connect 24 0 26 0;
#X connect 25 0 27 0;
#X connect 26 0 25 0;
#X connect 30 0 37 0;
#X connect 31 0 37 0;
#X connect 32 0 37 0;
#X connect 33 0 37 0;
#X connect 34 0 37 0;
#X connect 35 0 36 0;
#X connect 36 0 37 0;
#X connect 37 0 2 0;
#X connect 37 0 28 0;
