#N canvas 340 201 1010 566 12;
#X obj 191 260 jam 180 100, f 16;
#X obj 226 461 pack;
#X obj 226 485 s notes;
#X obj 213 308 list trim;
#X obj 108 344 print;
#X obj 311 309 print LINFO;
#X msg 203 68 list note 51 1;
#X obj 222 392 unpack 0 0 0;
#X obj 224 431 makenote;
#X msg 225 95 list asdf 33 3 51 1;
#X obj 221 357 route makenote;
#X msg 240 124 list ctl 33 3 51 1;
#X msg 409 120 reset;
#N canvas 295 320 450 300 tempo 1;
#X obj 129 210 metro 2.5;
#X floatatom 184 84 5 0 0 0 - - - 0;
#X floatatom 184 131 5 0 0 0 - - - 0;
#X obj 184 107 expr 60000/$f1;
#X obj 184 154 / 180;
#X floatatom 184 178 5 0 0 0 - - - 0;
#X obj 215 22 inlet;
#X obj 97 32 inlet;
#X obj 128 247 outlet;
#X obj 212 56 t f f;
#X obj 296 241 outlet;
#X connect 0 0 8 0;
#X connect 1 0 3 0;
#X connect 2 0 4 0;
#X connect 3 0 2 0;
#X connect 4 0 5 0;
#X connect 5 0 0 1;
#X connect 6 0 9 0;
#X connect 7 0 0 0;
#X connect 9 0 1 0;
#X connect 9 1 10 0;
#X restore 54 100 pd tempo;
#X obj 51 45 tgl 19 0 empty empty empty 0 -10 0 12 #fcfcfc #000000 #000000 0 1;
#X obj 114 33 hsl 162 19 0 300 0 0 empty empty empty -2 -10 0 12 #fcfcfc #000000 #000000 0 1;
#X floatatom 108 66 5 0 0 0 - - - 0;
#X msg 126 137 bpm \$1;
#X msg 459 118 load /Users/owen/repos/jampd/jam.lua;
#X obj 532 309 file patchpath;
#X obj 532 286 bng 19 250 50 0 empty empty empty 0 -10 0 12 #fcfcfc #000000 #000000;
#X obj 532 333 print;
#X obj 827 81 openpanel;
#X obj 828 56 bng 19 250 50 0 empty empty empty 0 -10 0 12 #fcfcfc #000000 #000000;
#X msg 827 132 load \$1;
#X obj 426 67 bng 19 250 50 0 empty empty empty 0 -10 0 12 #fcfcfc #000000 #000000;
#X obj 426 91 t b b;
#X obj 816 105 t b a;
#X msg 771 129 reset;
#X connect 0 0 3 0;
#X connect 0 0 4 0;
#X connect 0 1 5 0;
#X connect 1 0 2 0;
#X connect 3 0 10 0;
#X connect 6 0 0 0;
#X connect 7 0 8 0;
#X connect 7 1 8 1;
#X connect 7 2 8 2;
#X connect 8 0 1 0;
#X connect 8 1 1 1;
#X connect 9 0 0 0;
#X connect 10 0 7 0;
#X connect 11 0 0 0;
#X connect 12 0 0 0;
#X connect 13 0 0 0;
#X connect 13 1 17 0;
#X connect 14 0 13 0;
#X connect 15 0 16 0;
#X connect 16 0 13 1;
#X connect 17 0 0 0;
#X connect 18 0 0 0;
#X connect 19 0 21 0;
#X connect 20 0 19 0;
#X connect 22 0 27 0;
#X connect 23 0 22 0;
#X connect 24 0 0 0;
#X connect 25 0 26 0;
#X connect 26 0 12 0;
#X connect 26 1 18 0;
#X connect 27 0 28 0;
#X connect 27 1 24 0;
#X connect 28 0 0 0;
