#N canvas 848 167 958 684 12;
#X obj 300 463 pack;
#X obj 300 487 s notes;
#X obj 299 328 list trim;
#X obj 296 394 unpack 0 0 0;
#X obj 298 433 makenote;
#X msg 598 132 reset;
#N canvas 295 320 450 300 tempo 0;
#X obj 129 210 metro 2.5;
#X floatatom 184 84 5 0 0 0 - - - 0;
#X floatatom 184 131 5 0 0 0 - - - 0;
#X obj 184 107 expr 60000/$f1;
#X floatatom 184 178 5 0 0 0 - - - 0;
#X obj 215 22 inlet;
#X obj 97 32 inlet;
#X obj 128 247 outlet;
#X obj 212 56 t f f;
#X obj 296 241 outlet;
#X obj 184 154 / 360;
#X connect 0 0 7 0;
#X connect 1 0 3 0;
#X connect 2 0 10 0;
#X connect 3 0 2 0;
#X connect 4 0 0 1;
#X connect 5 0 8 0;
#X connect 6 0 0 0;
#X connect 8 0 1 0;
#X connect 8 1 9 0;
#X connect 10 0 4 0;
#X restore 127 139 pd tempo;
#X obj 127 97 tgl 19 0 empty empty empty 0 -10 0 12 #fcfcfc #000000 #000000 0 1;
#X obj 186 75 hsl 162 19 10 300 0 0 empty empty empty -2 -10 0 12 #fcfcfc #000000 #000000 0 1;
#X floatatom 182 105 5 0 0 0 - - - 0;
#X msg 191 167 bpm \$1;
#X msg 648 130 load /Users/owen/repos/jampd/jam.lua;
#X obj 615 79 bng 19 250 50 0 empty empty empty 0 -10 0 12 #fcfcfc #000000 #000000;
#X obj 615 103 t b b;
#X obj 296 362 route makenote ctl;
#X obj 206 374 print;
#X obj 407 84 hsl 162 19 0 127 0 0 empty empty empty -2 -10 0 12 #fcfcfc #000000 #000000 0 0;
#X msg 404 116 ctl 33 \$1;
#X obj 298 286 jam 360 100, f 16;
#X connect 0 0 1 0;
#X connect 2 0 14 0;
#X connect 3 0 4 0;
#X connect 3 1 4 1;
#X connect 3 2 4 2;
#X connect 4 0 0 0;
#X connect 4 1 0 1;
#X connect 5 0 18 0;
#X connect 6 0 18 0;
#X connect 6 1 10 0;
#X connect 7 0 6 0;
#X connect 8 0 9 0;
#X connect 9 0 6 1;
#X connect 10 0 18 0;
#X connect 11 0 18 0;
#X connect 12 0 13 0;
#X connect 13 0 5 0;
#X connect 13 1 11 0;
#X connect 14 0 3 0;
#X connect 16 0 17 0;
#X connect 17 0 18 0;
#X connect 18 0 2 0;
#X connect 18 0 15 0;
