#N canvas 275 245 1010 566 12;
#X obj 191 260 jam 180 100, f 16;
#X obj 92 184 tgl 19 0 empty empty empty 0 -10 0 12 #fcfcfc #000000 #000000 0 1;
#X msg 527 114 load /Users/owen/repos/Jam/pdjam/jam.lua;
#X obj 229 506 pack;
#X obj 229 530 s notes;
#X msg 525 141 load jam.lua;
#X obj 213 308 list trim;
#X obj 172 367 print;
#X obj 311 309 print LINFO;
#X msg 203 68 list note 51 1;
#X obj 225 437 unpack 0 0 0;
#X obj 227 476 makenote;
#X obj 92 212 metro 2.5;
#X msg 225 95 list asdf 33 3 51 1;
#X obj 221 357 route makenote;
#X msg 240 124 list ctl 33 3 51 1;
#X msg 524 167 reset;
#X connect 0 0 6 0;
#X connect 0 0 7 0;
#X connect 0 1 8 0;
#X connect 1 0 12 0;
#X connect 2 0 0 0;
#X connect 3 0 4 0;
#X connect 5 0 0 0;
#X connect 6 0 14 0;
#X connect 9 0 0 0;
#X connect 10 0 11 0;
#X connect 10 1 11 1;
#X connect 10 2 11 2;
#X connect 11 0 3 0;
#X connect 11 1 3 1;
#X connect 12 0 0 0;
#X connect 13 0 0 0;
#X connect 14 0 10 0;
#X connect 15 0 0 0;
#X connect 16 0 0 0;
